IKResults																		
version=1																		
nRows=29																		
nColumns=19																		
inDegrees=yes																		
																		
"Units are S.I. units (second, meters, Newtons, ...)"																		
"If the header above contains a line with 'inDegrees', this indicates whether rotational values are in degrees (yes) or radians (no)."																		
																		
endheader																		
time	pelvis_tilt	pelvis_list	pelvis_rotation	pelvis_tx	pelvis_ty	pelvis_tz	hip_flexion_r	hip_adduction_r	hip_rotation_r	knee_angle_r	knee_angle_r_beta	ankle_angle_r	hip_flexion_l	hip_adduction_l	hip_rotation_l	knee_angle_l	knee_angle_l_beta	ankle_angle_l
5.27	-0.39483951	11.16863361	-179.8268445	0	0.83797084	-0.39604072	13.45266476	-1.78427308	-22.05915921	59.16811941	1.0326785	9.47742217	22.5250262	-12.52612044	-4.33092147	0.14849793	0.00259178	4.43159193
5.28	-0.3098267	11.4836825	-179.8284643	0	0.83803618	-0.39570837	14.5537378	-1.53747468	-22.6927561	58.53517682	1.02163156	10.15059289	22.30252132	-12.78525203	-4.15605806	0.14834393	0.00258909	4.77590867
5.29	-0.26786111	11.76084419	-179.8292299	0	0.83817836	-0.39546244	15.51311811	-1.3326946	-23.42638281	57.61853718	1.00563318	10.58344971	22.02780591	-13.05079074	-4.10135682	0.14733454	0.00257147	5.09021328
5.3	-0.25340835	12.06181757	-179.8302869	0	0.83833552	-0.39526784	16.36892763	-1.05597803	-24.15877038	56.43796981	0.9850284	10.84765381	21.72520302	-13.3400002	-4.0170833	0.14559281	0.00254107	5.38987866
5.31	-0.23857427	12.19397718	-179.831124	0	0.83840816	-0.39504142	17.18329083	-0.99598369	-24.94553189	55.14953851	0.96254103	11.08858979	21.40689316	-13.44734106	-4.00577878	0.14276793	0.00249177	5.64526376
5.32	-0.17793993	12.61649457	-179.8316289	0	0.83849578	-0.39500708	17.916495	-0.51502384	-25.75382834	53.48643373	0.93351437	11.12016024	21.16510037	-13.87471088	-3.85528672	0.14480803	0.00252738	6.00915937
5.33	-0.22329	12.85489619	-179.8326421	0	0.83860013	-0.39494561	18.50918401	-0.2770047	-26.59894785	51.78143504	0.90375653	11.08913871	20.79827949	-14.12487899	-3.83014406	0.14378956	0.0025096	6.2688093
5.34	-0.22831639	12.67695838	-179.8334893	0	0.83844958	-0.39476456	19.18630451	-0.56770312	-27.43110076	50.23272811	0.8767265	11.27046728	20.43650421	-13.87605773	-3.86022813	0.14045502	0.0024514	6.41680687
5.35	-0.29162372	13.3037597	-179.8339816	0	0.83869976	-0.39496801	19.52367089	0.2569317	-28.31253914	47.92895552	0.83651808	10.81779391	20.07011632	-14.58989032	-3.74237519	0.14328905	0.00250087	6.80292965
5.36	-0.16664401	13.4489357	-179.8344645	0	0.83849084	-0.39501187	20.14908676	0.43994462	-29.20031564	45.9126668	0.8013272	10.56635253	19.88403513	-14.68161435	-3.57062979	0.14389439	0.00251143	7.0785872
5.37	-0.17740295	13.63380557	-179.8351765	0	0.83842258	-0.3951602	20.56672993	0.7220179	-30.05578008	43.76275331	0.76380414	10.17702637	19.54474279	-14.88571649	-3.54014122	0.14530795	0.0025361	7.31602102
5.38	-0.14748697	13.7719655	-179.8359733	0	0.83826812	-0.39536394	21.00505077	0.98793192	-30.84706631	41.57102301	0.72555122	9.72988395	19.24175467	-15.01702721	-3.45285843	0.14567795	0.00254256	7.55350605
5.39	-0.06920114	13.89043722	-179.8366212	0	0.83801797	-0.39561922	21.47452764	1.25406872	-31.60630258	39.36203703	0.68699715	9.2140476	18.99627854	-15.11843944	-3.33442054	0.14728419	0.00257059	7.79093793
5.4	-0.11617124	14.02175624	-179.8373459	0	0.83789779	-0.39598732	21.77650882	1.61379587	-32.21650708	37.0772621	0.6471203	8.61852723	18.60914092	-15.28467112	-3.3132908	0.14938559	0.00260727	7.98337258
5.41	0.01745588	14.09364949	-179.8383795	0	0.83753585	-0.39638891	22.27056485	1.90704628	-32.77326357	34.84559265	0.60817032	7.99129796	18.4250104	-15.35415559	-3.22065253	0.15150041	0.00264418	8.2081977
5.42	0.20509737	14.12907781	-179.8390086	0	0.83705173	-0.39688317	22.82326733	2.20302539	-33.16711556	32.63994229	0.56967446	7.36686047	18.30120772	-15.37397662	-3.08074782	0.1526786	0.00266474	8.43325308
5.43	0.36055796	14.16362623	-179.8400623	0	0.83660596	-0.39746726	23.31261841	2.5601406	-33.35461711	30.41770919	0.53088918	6.74191692	18.14097341	-15.43233893	-3.01860628	0.15547937	0.00271363	8.64136185
5.44	0.54920644	14.10456892	-179.8409858	0	0.8360656	-0.39811549	23.84342997	2.85493018	-33.2740002	28.26757153	0.49336219	6.21087366	18.01105046	-15.37270123	-2.93418236	0.15648353	0.00273115	8.83586902
5.45	0.6680331	14.24377878	-179.841398	0	0.83565027	-0.39890231	24.18621361	3.42111396	-33.14013313	25.97572015	0.45336184	5.5743109	17.81102739	-15.63354219	-3.00478037	0.16049557	0.00280118	9.01077189
5.46	0.75079318	14.31221242	-179.8420375	0	0.83521768	-0.39975075	24.47153965	3.96585567	-32.64493738	23.72384013	0.41405912	5.06933639	17.56332439	-15.8029112	-3.06082804	0.16351855	0.00285394	9.1694535
5.47	1.0781117	14.22718948	-179.8425071	0	0.83445959	-0.40064096	25.00331012	4.32769377	-31.88311432	21.63380986	0.37758121	4.79318083	17.57877752	-15.77075746	-3.03756077	0.16522977	0.0028838	9.37513635
5.48	1.37030713	14.12597606	-179.8430241	0	0.83371734	-0.40156136	25.43174089	4.7075084	-30.77512497	19.55657955	0.3413267	4.55119054	17.54608038	-15.71699826	-3.01066649	0.16667052	0.00290895	9.548055
5.49	1.63593293	14.10543608	-179.8432512	0	0.83299768	-0.40261435	25.71184461	5.20569696	-29.46300755	17.43498556	0.3042979	4.33435771	17.48078518	-15.82487841	-3.11114657	0.16967175	0.00296133	9.71582517
5.5	1.60576664	14.22091039	-179.842766	0	0.83263677	-0.40378795	25.48828198	5.92641796	-27.90671842	15.13829556	0.2642131	4.03230559	17.06101752	-16.20201738	-3.4639293	0.17154813	0.00299408	9.86651669
5.51	1.77176027	14.19589236	-179.8424016	0	0.83195009	-0.40492636	25.49068205	6.4031772	-26.10631035	13.15741839	0.22964027	3.86355146	16.86036869	-16.34112347	-3.64161631	0.1733138	0.0030249	10.01278651
5.52	1.94588063	14.12823245	-179.8416702	0	0.83122373	-0.40610396	25.41445834	6.79608144	-24.19444916	11.28511313	0.19696238	3.72222075	16.64570768	-16.44409123	-3.84564777	0.17415283	0.00303954	10.16420424
5.53	2.22054563	14.02231502	-179.8409682	0	0.83034301	-0.40726844	25.41667303	7.06326752	-22.31402162	9.65011802	0.16842633	3.57434297	16.53174463	-16.48871601	-4.00849668	0.1764314	0.00307931	10.30895014
5.54	2.33719773	13.92927865	-179.8398126	0	0.82960717	-0.4084784	25.2111649	7.3082351	-20.4218453	8.19212633	0.14297958	3.35196297	16.2268516	-16.5855535	-4.27281386	0.17685686	0.00308673	10.46626075
5.55	2.7346014	13.64988164	-179.838878	0	0.8284687	-0.40957848	25.54498301	7.14863188	-19.18797926	7.48300554	0.13060308	3.27322803	16.23428931	-16.41071348	-4.42300877	0.17911845	0.00312621	10.65811086
